M48
; DRILL file {KiCad 7.0.10-7.0.10~ubuntu22.04.1} date Thu 29 Feb 2024 02:24:00 PM CET
; FORMAT={-:-/ absolute / inch / decimal}
; #@! TF.CreationDate,2024-02-29T14:24:00+01:00
; #@! TF.GenerationSoftware,Kicad,Pcbnew,7.0.10-7.0.10~ubuntu22.04.1
; #@! TF.FileFunction,Plated,1,2,PTH
FMAT,2
INCH
; #@! TA.AperFunction,Plated,PTH,ViaDrill
T1C0.0236
; #@! TA.AperFunction,Plated,PTH,ComponentDrill
T2C0.0394
; #@! TA.AperFunction,Plated,PTH,ComponentDrill
T3C0.1260
%
G90
G05
T1
X4.77Y-3.27
X4.93Y-3.87
X4.97Y-3.79
X5.02Y-3.33
X5.072Y-3.552
X5.08Y-3.7
X5.09Y-3.07
X5.16Y-4.21
X5.26Y-3.78
X5.26Y-4.08
X5.45Y-2.89
X5.46Y-3.76
X5.57Y-2.95
X5.57Y-3.67
X5.57Y-4.08
X5.63Y-3.14
X5.6349Y-3.8778
X5.64Y-3.24
X5.7Y-3.16
X5.91Y-3.52
X6.04Y-3.6713
T2
X4.3307Y-3.4252
X4.3307Y-3.5236
X5.1378Y-2.7559
X5.2362Y-2.7559
X6.2992Y-3.4252
X6.2992Y-3.5236
T3
X4.3307Y-2.7559
X4.3307Y-4.3307
X6.2992Y-2.7559
X6.2992Y-4.3307
M30
